<?xml version="1.0" encoding="utf-8"?>
<!-- Generator: Adobe Illustrator 23.0.4, SVG Export Plug-In . SVG Version: 6.00 Build 0)  -->
<svg version="1.1" id="Layer_1" xmlns="http://www.w3.org/2000/svg" xmlns:xlink="http://www.w3.org/1999/xlink" x="0px" y="0px"
	 viewBox="0 0 24 24" style="enable-background:new 0 0 24 24;" xml:space="preserve">
<style type="text/css">
	.st0{fill:url(#SVGID_1_);}
	.st1{fill:#FFFFFF;}
</style>
<g>
	
		<linearGradient id="SVGID_1_" gradientUnits="userSpaceOnUse" x1="0" y1="468" x2="24" y2="468" gradientTransform="matrix(1 0 0 1 0 -456)">
		<stop  offset="0" style="stop-color:#FFDD55"/>
		<stop  offset="0.5" style="stop-color:#FF543E"/>
		<stop  offset="1" style="stop-color:#C837AB"/>
	</linearGradient>
	<circle class="st0" cx="12" cy="12" r="12"/>
	<path class="st1" d="M12,4.4c-3.1,0-6-0.2-7.1,2.6C4.4,8.2,4.4,9.8,4.4,12c0,1.9-0.1,3.8,0.4,4.9c1.1,2.8,4.1,2.6,7.1,2.6
		c2.9,0,6,0.3,7.1-2.6c0.6-1.2,0.6-2.7,0.6-4.9c0-2.9,0.2-4.8-1.2-6.2C16.8,4.3,14.8,4.4,12,4.4L12,4.4z M11.3,5.9
		c6.4,0,7.3-0.8,6.8,9.2c-0.2,3.5-2.8,3.1-6.1,3.1c-6,0-6.1-0.2-6.1-6.1C5.9,5.9,6.3,5.9,11.3,5.9L11.3,5.9z M16,7.1
		C15.5,7.1,15,7.5,15,8C15,8.6,15.4,9,16,9c0.5,0,0.9-0.4,0.9-0.9C16.9,7.5,16.5,7.1,16,7.1z M12,8.1c-2.2,0-3.9,1.7-3.9,3.9
		s1.7,3.9,3.9,3.9s3.9-1.7,3.9-3.9S14.2,8.1,12,8.1L12,8.1z M12,9.4c3.3,0,3.3,5,0,5S8.7,9.4,12,9.4z"/>
</g>
</svg>
