<svg xmlns="http://www.w3.org/2000/svg" width="402" height="553.399" viewBox="0 0 402 553.399">
    <defs>
        <style>
            .cls-3{fill:gold}.cls-4{fill:#00cdb3}.cls-5{fill:#ffca54}.cls-6{fill:#ff4b4e}.cls-7{fill:#57bae5}
        </style>
    </defs>
    <g id="Group_17668" data-name="Group 17668" transform="translate(-790 -33.337)">
        <g id="Group_15723" data-name="Group 15723" transform="translate(0 -4)">
            <rect id="Rectangle_4109" width="149" height="52" fill="#fd4c4f" data-name="Rectangle 4109" rx="26" transform="translate(790 146)"/>
            <text id="KNOW_MORE" fill="#fff" data-name="KNOW MORE" font-family="ProximaNova-Semibold, Proxima Nova" font-size="14px" font-weight="600" letter-spacing="0.01em" transform="translate(812 155)">
                <tspan x="0" y="13">Cash also </tspan><tspan x="0" y="30">supported!</tspan>
            </text>
        </g>
        <g id="Group_15673" data-name="Group 15673" transform="rotate(-10.02 -39.223 -721.57)">
            <circle id="Ellipse_3250" cx="7.514" cy="7.514" r="7.514" class="cls-3" data-name="Ellipse 3250" transform="rotate(74 215.793 595.318)"/>
            <circle id="Ellipse_3251" cx="7.514" cy="7.514" r="7.514" class="cls-4" data-name="Ellipse 3251" transform="rotate(74 177.398 669.492)"/>
            <circle id="Ellipse_3252" cx="9.711" cy="9.711" r="9.711" class="cls-5" data-name="Ellipse 3252" transform="rotate(74 171.282 643.097)"/>
            <circle id="Ellipse_3253" cx="5.318" cy="5.318" r="5.318" class="cls-6" data-name="Ellipse 3253" transform="rotate(74 207.533 637.632)"/>
            <circle id="Ellipse_3254" cx="5.318" cy="5.318" r="5.318" class="cls-6" data-name="Ellipse 3254" transform="rotate(74 195.547 560.03)"/>
            <path id="Path_27579" d="M372.143 303.3a4.1 4.1 0 0 1 3.965-4.222l8.159-.257a4.1 4.1 0 1 1 .256 8.187l-8.158.257a4.1 4.1 0 0 1-4.222-3.965z" class="cls-4" data-name="Path 27579" transform="rotate(74 622.277 463.094)"/>
            <path id="Path_27580" d="M220.088 54.651a4.1 4.1 0 0 1-3.965-4.222l.257-8.158a4.1 4.1 0 1 1 8.187.258l-.257 8.158a4.1 4.1 0 0 1-4.222 3.964z" class="cls-4" data-name="Path 27580" transform="rotate(74 299.988 477.24)"/>
            <path id="Path_27581" d="M308.847 79.352a4.1 4.1 0 0 1 3.965-4.222l8.158-.257a4.1 4.1 0 0 1 .257 8.187l-8.158.257a4.1 4.1 0 0 1-4.222-3.965z" class="cls-7" data-name="Path 27581" transform="rotate(74 334.216 467.887)"/>
            <path id="Path_27851" d="M298.484 120.725a2.5 2.5 0 0 1 1.622-3.15c3.862-1.237 12.918-5.233 13.607-15.595.408-6.147 2.661-11.019 6.7-14.481 7.334-6.293 17.858-5.461 18.3-5.422a2.505 2.505 0 0 1-.427 4.993c-.088-.007-8.923-.671-14.636 4.253-2.961 2.551-4.621 6.249-4.936 10.99-.628 9.458-6.853 16.76-17.078 20.035a2.505 2.505 0 0 1-3.152-1.623z" class="cls-3" data-name="Path 27851" transform="rotate(-33 727.45 -469.506)"/>
        </g>
        <g id="Group_15675" data-name="Group 15675" transform="rotate(-14 1080.564 -233.913)">
            <g id="Group_15671" data-name="Group 15671" transform="translate(164 205)">
                <circle id="Ellipse_3250-2" cx="7.514" cy="7.514" r="7.514" class="cls-5" data-name="Ellipse 3250" transform="rotate(74 215.793 595.318)"/>
                <circle id="Ellipse_3251-2" cx="7.514" cy="7.514" r="7.514" class="cls-4" data-name="Ellipse 3251" transform="rotate(74 177.398 669.492)"/>
                <circle id="Ellipse_3252-2" cx="9.711" cy="9.711" r="9.711" class="cls-3" data-name="Ellipse 3252" transform="rotate(74 171.282 643.097)"/>
                <circle id="Ellipse_3253-2" cx="5.318" cy="5.318" r="5.318" class="cls-6" data-name="Ellipse 3253" transform="rotate(74 207.533 637.632)"/>
                <circle id="Ellipse_3254-2" cx="5.318" cy="5.318" r="5.318" class="cls-6" data-name="Ellipse 3254" transform="rotate(74 195.547 560.03)"/>
                <path id="Path_27579-2" d="M372.143 303.3a4.1 4.1 0 0 1 3.965-4.222l8.159-.257a4.1 4.1 0 1 1 .256 8.187l-8.158.257a4.1 4.1 0 0 1-4.222-3.965z" class="cls-4" data-name="Path 27579" transform="rotate(74 622.277 463.094)"/>
                <path id="Path_27580-2" d="M220.088 54.651a4.1 4.1 0 0 1-3.965-4.222l.257-8.158a4.1 4.1 0 1 1 8.187.258l-.257 8.158a4.1 4.1 0 0 1-4.222 3.964z" class="cls-4" data-name="Path 27580" transform="rotate(74 299.988 477.24)"/>
                <path id="Path_27581-2" d="M308.847 79.352a4.1 4.1 0 0 1 3.965-4.222l8.158-.257a4.1 4.1 0 0 1 .257 8.187l-8.158.257a4.1 4.1 0 0 1-4.222-3.965z" class="cls-7" data-name="Path 27581" transform="rotate(74 334.216 467.887)"/>
            </g>
            <path id="Path_27847" d="M298.484 120.725a2.5 2.5 0 0 1 1.622-3.15c3.862-1.237 12.918-5.233 13.607-15.595.408-6.147 2.661-11.019 6.7-14.481 7.334-6.293 17.858-5.461 18.3-5.422a2.505 2.505 0 0 1-.427 4.993c-.088-.007-8.923-.671-14.636 4.253-2.961 2.551-4.621 6.249-4.936 10.99-.628 9.458-6.853 16.76-17.078 20.035a2.505 2.505 0 0 1-3.152-1.623z" class="cls-3" data-name="Path 27847" transform="rotate(-12.04 2589.015 -2181.595)"/>
        </g>
        <g id="Group_15674" data-name="Group 15674" transform="translate(1080.317 68.228)">
            <g id="Group_15672" data-name="Group 15672" transform="rotate(18.01 14.05 88.607)">
                <circle id="Ellipse_3251-3" cx="7.514" cy="7.514" r="7.514" class="cls-4" data-name="Ellipse 3251" transform="rotate(-74 53.345 -22.968)"/>
                <circle id="Ellipse_3252-3" cx="9.711" cy="9.711" r="9.711" class="cls-3" data-name="Ellipse 3252" transform="rotate(-74 44.313 5.624)"/>
                <circle id="Ellipse_3253-3" cx="5.318" cy="5.318" r="5.318" class="cls-6" data-name="Ellipse 3253" transform="rotate(-74 86.394 6.696)"/>
                <path id="Path_27581-3" d="M0 3.967A4.1 4.1 0 0 0 3.967 8.19l8.158.257A4.1 4.1 0 0 0 12.382.26L4.224 0A4.1 4.1 0 0 0 0 3.967z" class="cls-7" data-name="Path 27581" transform="rotate(-74 10.428 7.858)"/>
            </g>
            <path id="Path_27849" d="M.12 38.7a2.5 2.5 0 0 1 1.622-3.15C5.6 34.318 14.66 30.322 15.349 19.96c.408-6.147 2.661-11.019 6.7-14.481C29.379-.814 39.9.018 40.348.056a2.505 2.505 0 0 1-.427 4.993C39.832 5.042 31 4.378 25.284 9.3c-2.961 2.551-4.621 6.249-4.936 10.99C19.72 29.749 13.5 37.051 3.27 40.327A2.505 2.505 0 0 1 .12 38.7z" class="cls-3" data-name="Path 27849" transform="rotate(60 -1.172 105.02)"/>
        </g>
    </g>
</svg>
