<svg xmlns="http://www.w3.org/2000/svg" width="24" height="24" viewBox="0 0 24 24">
    <g id="windows-media-audio" transform="translate(-.001)">
        <circle id="Ellipse_3259" cx="12" cy="12" r="12" fill="#55acee" data-name="Ellipse 3259" transform="translate(.001)"/>
        <g id="Group_15487" data-name="Group 15487" transform="translate(5.371 7.279)">
            <path id="Path_27593" fill="#f1f2f2" d="M39.084 35.373a5.723 5.723 0 0 1-1.648.451 2.876 2.876 0 0 0 1.264-1.586 5.742 5.742 0 0 1-1.821.7 2.871 2.871 0 0 0-4.888 2.617 8.142 8.142 0 0 1-5.912-3 2.871 2.871 0 0 0 .888 3.83 2.848 2.848 0 0 1-1.3-.359v.036a2.87 2.87 0 0 0 2.3 2.812 2.879 2.879 0 0 1-1.3.05 2.871 2.871 0 0 0 2.679 1.992A5.79 5.79 0 0 1 25.1 44.1a8.157 8.157 0 0 0 12.558-6.873c0-.124 0-.248-.008-.371a5.817 5.817 0 0 0 1.431-1.485z" data-name="Path 27593" transform="translate(-25.103 -34.028)"/>
        </g>
    </g>
</svg>
